# ProBuilder 6.0.5
# https://unity3d.com/unity/features/worldbuilding/probuilder
# 9/14/2025 8:35:25 PM

mtllib ./EnemySpawn1.mtl
o EnemySpawn1

g EnemySpawn1
v -54.04264 10.8 86.06059
v -54.55176 10.8 85.55148
v -53.55001 6 85.2
v -54.04264 6 84.70295
v -54.89117 6 85.55148
v -54.04264 6 86.40001
v -50.64853 10.8 89.45471
v -51.49706 6 88.94559
v -50.40001 6 88.35001
v -50.64853 6 89.79412
v -49.8 6 88.94559
v -54.04264 9.6 84.70295
v -54.89117 9.6 85.55148
v -54.04264 10.56 84.70295
v -54.89117 10.56 85.55148
v -50.64853 9.6 89.79412
v -49.8 9.6 88.94559
v -50.64853 10.56 89.79412
v -49.8 10.56 88.94559
v -54.04264 9.6 86.40001
v -54.04264 10.56 86.40001
v -51.49706 9.6 88.94559
v -51.49706 10.56 88.94559
v -46.69898 9.6 85.84457
v -46.69898 10.56 85.84457
v -46.7453 10.8 85.55148
v -47.25442 10.8 85.04236
v -50.64853 9.000001 88.50001
v -47.10001 9.000001 84.90001
v -47.10001 6 84.90001
v -50.64853 10.8 81.64825
v -52.76985 9.6 85.97575
v -51.0728 9.6 87.6728
v -49.50001 9.6 82.50001
v -47.70001 9.6 84.3
v -50.94162 10.56 81.60193
v -50.94162 9.6 81.60193
v -50.94162 6 81.60193
v -53.40001 9.000001 85.2
v -50.10001 6 81.90001
v -50.10001 9.000001 81.90001
v -46.80001 6 85.84457
v -54.04264 10.8 85.04236
v -53.70324 10.8 84.70295
v -49.8 10.8 82.49678
v -50.13942 10.8 82.15736
v -50.64853 10.8 88.43648
v -50.13942 10.8 88.94559
v -50.30912 10.8 88.09706
v -49.8 10.8 88.60618
v -47.59383 10.8 84.70295
v -53.19412 10.8 85.89089
v -52.85471 10.8 85.55148
v -50.98794 10.8 88.09706
v -51.49706 10.8 88.60618
v -51.15765 10.8 88.94559
v -53.70324 10.8 86.40001
v -53.53353 10.8 85.55148
v -53.19412 10.8 85.55148
v -53.19412 10.8 85.21207
v -50.64853 10.8 88.09706
v -50.64853 10.8 87.75765
v -50.22427 9.6 81.7331
v -50.35544 9.6 81.60193
v -50.35544 6 81.60193
v -49.8 10.56 82.15736
v -50.35544 10.56 81.60193
v -50.10001 10.2 81.90001
v -50.10001 9.6 81.90001
v -46.80001 9.6 85.2
v -46.95 9.6 85.05
v -46.80001 6 85.2
v -46.69898 10.56 85.25838
v -47.25442 10.56 84.70295
v -47.10001 10.2 84.90001
v -47.10001 9.6 84.90001
v -46.74432 10.79931 85.55148
v -50.64853 10.79931 81.64727

vt 1.7 0.3
vt 2.3 0.3
vt 0.5831831 0.0026021
vt 0 0
vt 0 1
vt 1 1
vt -2.3 0.3
vt 4 1
vt 4.295491 0.002604961
vt 5 1
vt 5 0
vt 1 -2
vt 0 -2
vt 0 0.8
vt 1 0.8
vt 1 0
vt 5 -2
vt 4 -2
vt 4 0
vt 4 0.8
vt 5 0.8
vt 3.65459 0
vt 3.65459 0.8
vt -2.3 -4.3
vt -1.7 -4.3
vt 4 0.5
vt 0 0.5
vt 2.3 -4.3
vt 0.5 1
vt 2.5 1
vt 0.5 -3
vt 2.5 -3
vt 0.3454101 0.8
vt 0.3454101 0
vt 0.3454101 1
vt 0.3454101 -2
vt 3.65459 -2
vt 3.65459 1
vt 2.3 -0.3
vt 2.3 -0.7
vt 1.3 -4.3
vt 1.7 -4.3
vt -1.7 -0.3
vt -2.3 -0.3
vt -1.7 -0.7
vt -2.3 -0.7
vt -1.3 -4.3
vt 1.3 -0.3
vt 1.3 -0.7
vt -1.3 -0.3
vt -1.3 0.3
vt -1.7 0.3
vt 1.3 0.3
vt 1.3 1.202082
vt 1.5 0.9192392
vt 2.3 1.202082
vt 1.7 1.202082
vt 2.5 0.9192392
vt -1.7 1.202082
vt -2.3 1.202082
vt -1.5 0.9192392
vt -2.5 0.9192392
vt 1.7 -0.3
vt 1.5 -0.5
vt 1.7 -0.7
vt -1.5 -0.5
vt -1.3 -0.7
vt -1.3 1.202082
vt 0.8660256 -2.975488
vt 0.9650865 1
vt 1.192093E-07 -2.975488
vt 0 0.9129956
vt 0.6545899 1
vt 0.6545899 -2
vt 0.6545899 0.8
vt 0.6545899 0
vt 0.5 0
vt 0.7071068 1
vt 0.7071068 0.5
vt 0.1733992 1
vt 0.1733992 0.5
vt 0.8660277 -3.212348
vt 0.8907915 1
vt 0 -3.212345
vt 3.218651E-06 0.7624915
vt 1 0.5
vt 3 0.8
vt 3 0.5
vt 2.5 0
vt 3.624685 0.4995657
vt 3.709689 -1.999591
vt 0 -2.000744
vt 0.04919469 0.5011284
vt 0.7950276 0.9993791
vt 2.793616 1
vt 0.1767766 1
vt 0.1767766 0.5
vt 1.169973 1.8
vt 1.169973 1
vt 1.658457 1.8
vt 1.707109 1
vt 0.4272546 1.133466
vt 0.4402938 -1.867687
vt 0.9709479 1.133466
vt 0.9709483 -1.865382
vt -0.4949748 -0.5
vt -0.4949748 0.5
vt -0.212132 0.3
vt -0.212132 -0.3
vt -0.212132 -0.7
vt -0.212132 -4.3
vt -0.2129485 -4.300578
vt -0.4949748 -4.15459
vt 0.7928971 0.997395
vt 0.7333659 -2.597669
vt 0.3535534 -2.977476
vt 0 -2.977476
vt 0.0883882 1
vt 1.169973 0.8925816
vt 1.658457 0.8925816
vt 1.414215 1.095552
vt -1.169973 1
vt -1.169973 1.8
vt -1.658457 1
vt -1.658457 1.8
vt 0.4884838 -2
vt 0.4884838 1
vt 0.212132 -0.7
vt 0.212132 -0.3
vt 0.212132 0.3
vt 0.4949748 0.5
vt 0.4949748 -0.5
vt 0.4949748 -4.15459
vt 0.2129485 -4.300578
vt 0.212132 -4.3
vt 2.300577 -1.627159
vt 2.15459 -1.909186
vt 1.5 -1.909186
vt -1.5 -1.909186
vt -2.15459 -1.909186
vt -2.300577 -1.627159
vt -2.3 -1.626343
vt -1.7 -1.626343
vt -1.3 -1.626343
vt 1.3 -1.626343
vt 1.7 -1.626343
vt 2.3 -1.626343
vt 0.5831831 1
vt 0.6715689 -2.977473
vt 0.3454101 -3.002602
vt 0 -2.657192
vt 0 0.9973979
vt -1.169973 0.8925816
vt -1.658457 0.8925816
vt -1.414215 1.095552

vn 0 1.2 0
vn 0 -1.2 0
vn -0.8485282 0 -0.8485281
vn 0.8485282 0 0.8485281
vn -0.8485281 0 0.8485282
vn -0.8543717 -0.02866961 -0.8421564
vn -0.860771 -0.01433413 -0.8358118
vn -0.8671703 1.346256E-06 -0.8294672
vn 0.8289729 -0.04144739 0.8666523
vn 0.8387505 -0.0207237 0.8575903
vn 0.8624609 0 0.8343629
vn 0.8554111 -0.0119039 0.8413621
vn 0.8483612 -0.0238078 0.8483611
vn -0.6000001 0.8485281 0.6000001
vn 0.5047727 -0.9796438 0.4748711
vn 0.4716159 -1.003511 0.4566651
vn 0.4384592 -1.027379 0.4384592
vn 0.8899546 -0.02007774 -0.8030459
vn 0.8474585 -0.0602332 -0.8474586
vn 0.8793305 -0.0301166 -0.8141491
vn 0.9112025 0 -0.7808394
vn 0.845567 -0.1001646 -0.845567
vn 0.872644 -0.02617852 -0.8198798
vn 0.8485281 0 -0.8485282
vn 0.8861825 0.01081453 -0.8070361
vn 0.884702 -0.03926778 -0.8055556
vn 0.9625385 0 -0.716603
vn -0.4934198 -0.9797887 -0.4863651
vn -0.4848039 -0.9865056 -0.4812761
vn -0.476188 -0.9932225 -0.476187
vn 0.8342509 -0.05235399 -0.8598985
vn 0.8273213 -0.05969543 -0.8657928
vn 0.8285925 -0.0284534 -0.8670639
vn 0.84811 -0.03767111 -0.84811
vn 0.8334711 -0.04711895 -0.8617519
vn 0.8188324 -0.0565625 -0.8753938
vn 0.8383507 -0.0439711 -0.8572046
vn 0.8641578 -0.05252759 -0.8304715
vn 0.8802058 -0.06737978 -0.8128332
vn 0.8588085 -0.04757686 -0.836351
vn 0.8956429 0.03246839 -0.7937539
vn 0.847999 -0.04239865 -0.8479978
vn 0.8827375 0.03592754 -0.8064857
vn 0.8684744 -0.1249848 -0.7665857
vn 0.7664934 -0.5147581 -0.7664934
vn 0.8439736 -0.244604 -0.7673919
vn 1.2 0 4.130391E-07
vn 1.190132 -0.05647635 -0.09249207
vn 1.180264 -0.1129527 -0.1849846
vn 1.185072 -0.03325531 -0.1857382
vn 1.192536 -0.01662843 -0.09287346
vn 0.6 0.8485281 0.6
vn 0.5999512 0.8485466 0.6000229
vn 1.179024 0.2233865 3.631996E-07
vn -4.973328E-07 0 -1.2
vn -0.6 0.8485281 -0.6
vn -0.6000153 0.8485405 -0.5999674
vn 0.6000463 0.8485648 -0.599902
vn 0.6000004 0.8485277 -0.6000004
vn 0.5999675 0.84854 -0.6000157
vn -4.460199E-07 0.2233865 -1.179024

usemtl Floor
f 1/59/14 2/60/14 21/61/14
f 2/60/14 15/62/14 21/61/14
f 21/61/14 57/68/14 1/59/14
f 55/54/14 57/68/14 23/55/14
f 57/68/14 21/61/14 23/55/14
f 7/56/14 56/57/14 18/58/14
f 56/57/14 23/55/14 18/58/14
f 23/55/14 56/57/14 55/54/14
f 47/43/1 48/44/1 49/45/1
f 48/44/1 50/46/1 49/45/1
f 54/50/1 55/51/1 47/43/1
f 55/51/1 56/52/1 47/43/1
f 7/7/1 48/44/1 47/43/1
f 7/7/1 47/43/1 56/52/1
f 49/45/1 61/66/1 47/43/1
f 62/67/1 61/66/1 49/45/1
f 47/43/1 61/66/1 54/50/1
f 54/50/1 61/66/1 62/67/1
f 52/48/1 54/50/1 53/49/1
f 54/50/1 62/67/1 53/49/1
f 53/49/1 59/64/1 52/48/1
f 60/65/1 59/64/1 53/49/1
f 52/48/1 59/64/1 58/63/1
f 58/63/1 59/64/1 60/65/1
f 43/39/1 58/63/1 44/40/1
f 58/63/1 60/65/1 44/40/1
f 1/1/1 58/63/1 43/39/1
f 1/1/1 43/39/1 2/2/1
f 58/63/1 1/1/1 52/48/1
f 1/1/1 57/53/1 52/48/1
f 55/51/1 54/50/1 52/48/1
f 55/51/1 52/48/1 57/53/1
f 53/49/1 45/41/1 60/65/1
f 45/41/1 46/42/1 60/65/1
f 46/42/1 44/40/1 60/65/1
f 46/42/1 31/28/1 44/40/1
f 26/24/1 49/45/1 50/46/1
f 26/24/1 27/25/1 49/45/1
f 49/45/1 27/25/1 62/67/1
f 27/25/1 51/47/1 62/67/1
f 51/47/1 53/49/1 62/67/1
f 51/47/1 45/41/1 53/49/1
f 41/27/18 64/73/20 63/29/19
f 41/27/18 65/74/21 64/73/20
f 41/27/18 40/13/21 65/74/21
f 66/14/22 68/27/26 67/75/23
f 68/27/26 63/77/25 67/75/23
f 63/77/25 64/76/24 67/75/23
f 41/79/24 69/78/24 34/5/24
f 63/80/27 69/5/27 41/27/27
f 68/5/27 69/27/27 63/81/27
f 34/27/24 69/79/24 68/78/24
f 29/86/24 71/29/24 70/35/24
f 72/36/24 29/86/24 70/35/24
f 72/36/24 30/12/24 29/86/24
f 75/86/32 74/15/22 73/33/31
f 71/77/33 75/86/32 73/33/31
f 73/33/31 70/34/34 71/77/33
f 74/14/40 34/89/37 66/87/35
f 74/14/40 35/77/38 34/89/37
f 74/14/40 75/27/39 35/77/38
f 34/89/37 68/88/36 66/87/35
f 28/93/44 39/90/41 32/95/46
f 28/93/44 9/92/43 39/90/41
f 9/92/43 3/91/42 39/90/41
f 28/93/44 32/95/46 33/94/45
f 35/78/24 76/5/24 29/27/24
f 75/5/24 76/27/24 35/79/24
f 71/27/24 76/97/24 75/96/24
f 29/97/24 76/96/24 71/5/24
f 18/107/52 19/106/52 7/108/52
f 19/106/52 48/109/52 7/108/52
f 19/106/52 50/110/52 48/109/52
f 19/106/52 25/113/53 50/110/52
f 26/111/53 50/110/52 25/113/53
f 77/112/53 26/111/53 25/113/53
f 42/115/2 11/114/2 9/118/2
f 42/115/2 9/118/2 30/117/2
f 30/117/2 72/116/2 42/115/2
f 25/119/54 73/120/54 77/121/54
f 36/133/57 31/135/57 78/134/57
f 36/133/57 44/128/56 31/135/57
f 44/128/56 36/133/57 14/132/56
f 43/129/56 44/128/56 14/132/56
f 2/130/56 43/129/56 14/132/56
f 2/130/56 14/132/56 15/131/56
f 67/137/58 78/136/58 31/147/58
f 46/146/59 67/137/58 31/147/58
f 66/138/59 67/137/58 46/146/59
f 45/145/59 66/138/59 46/146/59
f 74/139/59 66/138/59 45/145/59
f 74/139/59 45/145/59 51/144/59
f 27/143/59 74/139/59 51/144/59
f 73/140/60 74/139/59 27/143/59
f 73/140/60 27/143/59 26/142/60
f 73/140/60 26/142/60 77/141/60
f 4/152/2 38/151/2 3/148/2
f 40/149/2 3/148/2 38/151/2
f 65/150/2 40/149/2 38/151/2
f 78/155/61 67/154/61 36/153/61
f 6/6/2 5/5/2 4/4/2
f 4/4/2 3/3/2 6/6/2
f 8/8/2 6/6/2 3/3/2
f 3/3/2 9/9/2 8/8/2
f 10/10/2 8/8/2 9/9/2
f 9/9/2 11/11/2 10/10/2
f 12/5/3 4/13/3 5/12/3
f 5/12/3 13/6/3 12/5/3
f 14/14/3 12/4/3 13/16/3
f 13/16/3 15/15/3 14/14/3
f 17/6/4 16/5/4 10/13/4
f 10/13/4 11/12/4 17/6/4
f 19/15/4 18/14/4 16/4/4
f 16/4/4 17/16/4 19/15/4
f 13/5/5 5/13/5 6/12/5
f 6/12/5 20/6/5 13/5/5
f 15/14/5 13/4/5 20/16/5
f 20/16/5 21/15/5 15/14/5
f 22/8/5 8/18/5 10/17/5
f 10/17/5 16/10/5 22/8/5
f 23/20/5 22/19/5 16/11/5
f 16/11/5 18/21/5 23/20/5
f 20/6/5 6/12/5 8/18/5
f 8/18/5 22/8/5 20/6/5
f 21/15/5 20/16/5 22/19/5
f 22/19/5 23/20/5 21/15/5
f 25/23/4 19/14/4 17/4/4
f 17/4/4 24/22/4 25/23/4
f 30/13/8 9/18/7 28/26/6
f 28/26/6 29/27/7 30/13/8
f 35/32/2 33/30/2 32/29/2
f 32/29/2 34/31/2 35/32/2
f 37/34/3 12/19/3 14/20/3
f 14/20/3 36/33/3 37/34/3
f 38/36/3 4/18/3 12/8/3
f 12/8/3 37/35/3 38/36/3
f 41/26/4 39/27/10 3/13/9
f 3/13/9 40/18/10 41/26/4
f 24/38/13 17/5/12 11/13/11
f 11/13/11 42/37/12 24/38/13
f 41/71/16 34/69/15 32/70/16
f 32/70/16 39/72/17 41/71/16
f 35/84/29 29/82/28 28/83/29
f 28/83/29 33/85/30 35/84/29
f 73/100/48 25/98/47 24/99/48
f 24/99/48 70/101/49 73/100/48
f 70/104/51 24/102/50 42/103/51
f 42/103/51 72/105/47 70/104/51
f 64/124/55 37/122/55 36/123/55
f 36/123/55 67/125/55 64/124/55
f 65/13/55 38/126/55 37/127/55
f 37/127/55 64/5/55 65/13/55

